{"title":"Stella Blómkvist S01 E04 - 720p x265 HEVC - ICE (ENG SUBS) [BRS","magnet":"magnet:?xt=urn:btih:cd7b4dd96331b432854343023aa51835331b791a&dn=Stella+Blo%CC%81mkvist+S01+E04+-+720p+x265+HEVC+-+ICE+%28ENG+SUBS%29+%5BBRS&tr=udp%3A%2F%2Ftracker.leechers-paradise.org%3A6969&tr=udp%3A%2F%2Fzer0day.ch%3A1337&tr=udp%3A%2F%2Fopen.demonii.com%3A1337&tr=udp%3A%2F%2Ftracker.coppersurfer.tk%3A6969&tr=udp%3A%2F%2Fexodus.desync.com%3A6969","uploader":"BRSHNKV","categoryP":"video","categoryS":"hd___tv_shows","size":"459997656","seeders":"21","leechers":"4","description":"Video \r\nID : 1 \r\nFormat : HEVC \r\nFormat/Info : High Efficiency Video Coding \r\nFormat profile : Main 10@L3.1@Main \r\nCodec ID : hev1 \r\nCodec ID/Info : High Efficiency Video Coding \r\nDuration : 46mn 23s \r\nBit rate : 1 151 Kbps \r\nWidth : 1 280 pixels \r\nHeight : 720 pixels \r\nDisplay aspect ratio : 16:9 \r\nFrame rate mode : Constant \r\nFrame rate : 25.000 fps \r\nColor space : YUV \r\nChroma subsampling : 4:2:0 \r\nBit depth : 10 bits \r\nBits/(Pixel*Frame) : 0.050 \r\nStream size : 382 MiB (87%) \r\nWriting library : x265 1.9:[Mac OS X][clang 7.0.2][64 bit] 10bit \r\nEncoded date : UTC 2018-06-04 21:33:38 \r\nTagged date : UTC 2018-06-04 21:33:38 \r\nColor range : Limited \r\nColor primaries : BT.709 \r\nTransfer characteristics : BT.709 \r\nMatrix coefficients : BT.709 \r\n\r\nAudio \r\nID : 2 \r\nFormat : AAC \r\nFormat/Info : Advanced Audio Codec \r\nFormat profile : LC \r\nCodec ID : 40 \r\nDuration : 46mn 24s \r\nBit rate mode : Variable \r\nBit rate : 165 Kbps \r\nChannel(s) : 2 channels \r\nChannel positions : Front: L R \r\nSampling rate : 48.0 KHz \r\nCompression mode : Lossy \r\nStream size : 54.6 MiB (12%) \r\nTitle : Stereo / Stereo \r\nLanguage : Icelandic \r\nEncoded date : UTC 2018-06-04 21:33:38 \r\nTagged date : UTC 2018-06-04 21:33:38","last_updated":"2018-06-08T12:10:16.542Z","parsed":{"xt":"urn:btih:cd7b4dd96331b432854343023aa51835331b791a","dn":"Stella Blómkvist S01 E04 - 720p x265 HEVC - ICE (ENG SUBS) [BRS","tr":["udp://exodus.desync.com:6969","udp://open.demonii.com:1337","udp://tracker.coppersurfer.tk:6969","udp://tracker.leechers-paradise.org:6969","udp://zer0day.ch:1337"],"infoHash":"cd7b4dd96331b432854343023aa51835331b791a","infoHashBuffer":{"type":"Buffer","data":[205,123,77,217,99,49,180,50,133,67,67,2,58,165,24,53,51,27,121,26]},"name":"Stella Blómkvist S01 E04 - 720p x265 HEVC - ICE (ENG SUBS) [BRS","announce":["udp://exodus.desync.com:6969","udp://open.demonii.com:1337","udp://tracker.coppersurfer.tk:6969","udp://tracker.leechers-paradise.org:6969","udp://zer0day.ch:1337"],"urlList":[]}}